<?xml version="1.0" standalone="no"?>
<!DOCTYPE svg PUBLIC "-//W3C//DTD SVG 20010904//EN"
 "http://www.w3.org/TR/2001/REC-SVG-20010904/DTD/svg10.dtd">
<svg version="1.0" xmlns="http://www.w3.org/2000/svg"
 width="260.000000pt" height="260.000000pt" viewBox="0 0 260.000000 260.000000"
 preserveAspectRatio="xMidYMid meet">
<metadata>
Created by potrace 1.14, written by Peter Selinger 2001-2017
</metadata>
<g transform="translate(0.000000,260.000000) scale(0.100000,-0.100000)"
fill="#000000" stroke="none">
<path d="M0 1300 l0 -1300 1300 0 1300 0 0 1300 0 1300 -1300 0 -1300 0 0
-1300z m1080 1090 c0 -5 -5 -10 -11 -10 -5 0 -7 5 -4 10 3 6 8 10 11 10 2 0 4
-4 4 -10z m172 -52 c-15 -15 -43 -2 -36 16 5 12 10 13 26 5 14 -8 17 -14 10
-21z m138 1 c-36 -8 -60 -2 -41 10 6 4 26 5 44 2 l32 -5 -35 -7z m-237 -6 c-7
-2 -19 -2 -25 0 -7 3 -2 5 12 5 14 0 19 -2 13 -5z m330 0 c-7 -2 -19 -2 -25 0
-7 3 -2 5 12 5 14 0 19 -2 13 -5z m57 -13 c0 -5 -7 -7 -15 -4 -8 4 -15 8 -15
10 0 2 7 4 15 4 8 0 15 -4 15 -10z m-493 -6 c-3 -3 -12 -4 -19 -1 -8 3 -5 6 6
6 11 1 17 -2 13 -5z m203 -54 l0 -60 -47 2 -48 1 43 4 42 4 0 55 c0 30 2 54 5
54 3 0 5 -27 5 -60z m327 54 c-3 -3 -12 -4 -19 -1 -8 3 -5 6 6 6 11 1 17 -2
13 -5z m-364 -11 c-7 -2 -19 -2 -25 0 -7 3 -2 5 12 5 14 0 19 -2 13 -5z m-413
-12 c0 -6 -4 -13 -10 -16 -5 -3 -10 1 -10 9 0 9 5 16 10 16 6 0 10 -4 10 -9z
m337 3 c-3 -3 -12 -4 -19 -1 -8 3 -5 6 6 6 11 1 17 -2 13 -5z m-173 -36 c7 -5
4 -8 -6 -8 -12 0 -18 7 -17 23 0 15 2 17 6 7 3 -8 11 -18 17 -22z m-54 12 c0
-5 -2 -10 -4 -10 -3 0 -8 5 -11 10 -3 6 -1 10 4 10 6 0 11 -4 11 -10z m187
-22 c-3 -8 -6 -5 -6 6 -1 11 2 17 5 13 3 -3 4 -12 1 -19z m255 -55 c9 -9 23
-12 30 -7 7 4 10 4 6 -1 -11 -12 10 -33 30 -30 9 1 12 0 5 -2 -13 -5 23 -103
38 -103 5 0 6 -7 3 -15 -5 -11 -2 -13 11 -8 16 5 17 2 12 -25 -4 -17 0 -53 9
-82 8 -29 13 -55 10 -58 -3 -3 -6 2 -6 10 0 8 -9 27 -20 41 -12 15 -16 27 -9
29 13 4 -16 85 -39 108 -15 16 -15 15 3 -47 4 -14 2 -23 -4 -23 -6 0 -11 5
-11 11 0 5 -4 7 -10 4 -5 -3 -15 5 -21 19 -7 14 -15 23 -19 21 -14 -9 -60 36
-60 58 0 21 -1 21 -13 -3 -9 -17 -20 -24 -34 -22 -25 4 -49 -27 -64 -80 -9
-36 -37 -74 -46 -64 -3 2 2 15 10 28 8 12 17 35 21 49 3 14 17 42 30 62 14 20
23 37 21 37 -10 0 -57 -58 -76 -95 -59 -116 -69 -106 -14 15 19 43 35 82 35
87 0 10 64 73 99 96 25 16 45 13 73 -10z m91 10 c-7 -2 -21 -2 -30 0 -10 3 -4
5 12 5 17 0 24 -2 18 -5z m-310 -10 c-7 -2 -19 -2 -25 0 -7 3 -2 5 12 5 14 0
19 -2 13 -5z m414 -9 c-3 -3 -12 -4 -19 -1 -8 3 -5 6 6 6 11 1 17 -2 13 -5z
m-757 -9 c0 -2 -10 -9 -22 -15 -22 -11 -22 -10 -4 4 21 17 26 19 26 11z m797
-1 c-3 -3 -12 -4 -19 -1 -8 3 -5 6 6 6 11 1 17 -2 13 -5z m-377 -14 c0 -5 -10
-10 -22 -9 -22 0 -22 1 -3 9 11 5 21 9 23 9 1 1 2 -3 2 -9z m-132 -18 c2 -7
-6 -12 -17 -12 -12 0 -21 -4 -21 -8 0 -4 -9 -8 -19 -8 -11 0 -17 4 -15 8 3 4
0 8 -6 8 -6 0 -8 5 -4 11 3 6 17 9 30 6 13 -2 24 0 24 5 0 13 23 5 28 -10z
m818 -13 c3 -6 -5 -3 -20 6 -14 10 -26 19 -26 22 0 7 39 -17 46 -28z m-1226 5
c0 -8 -4 -12 -10 -9 -5 3 -10 10 -10 16 0 5 5 9 10 9 6 0 10 -7 10 -16z m65 6
c-3 -5 -16 -15 -28 -21 -21 -10 -21 -9 2 10 25 23 36 27 26 11z m214 6 c-10
-9 -89 -46 -89 -41 0 6 72 44 84 45 5 0 7 -2 5 -4z m184 -3 c-7 -2 -19 -2 -25
0 -7 3 -2 5 12 5 14 0 19 -2 13 -5z m401 -18 c-7 -17 -20 -20 -28 -6 -7 10 3
21 20 21 8 0 11 -6 8 -15z m-744 1 c0 -2 -12 -11 -27 -20 l-28 -17 24 20 c23
21 31 25 31 17z m330 -6 c0 -5 -7 -10 -15 -10 -8 0 -15 5 -15 10 0 6 7 10 15
10 8 0 15 -4 15 -10z m850 -46 c0 -3 -13 4 -30 16 -16 12 -30 24 -30 26 0 3
14 -4 30 -16 17 -12 30 -24 30 -26z m-1290 32 c0 -2 -8 -10 -17 -17 -16 -13
-17 -12 -4 4 13 16 21 21 21 13z m1120 -32 c0 -2 -13 2 -30 11 -16 9 -30 18
-30 21 0 2 14 -2 30 -11 17 -9 30 -18 30 -21z m-962 12 c-10 -7 -15 -16 -11
-19 3 -4 12 -2 20 4 8 7 13 8 13 1 0 -14 -28 -23 -35 -12 -7 11 -35 2 -35 -12
0 -6 7 -7 16 -4 15 6 15 4 3 -10 -8 -10 -13 -19 -11 -21 2 -3 0 -8 -4 -11 -4
-4 -4 -2 -1 4 4 6 0 20 -9 30 -15 18 -15 18 -9 -2 4 -16 -4 -26 -37 -48 l-43
-27 33 31 c17 17 32 37 32 45 0 8 19 25 43 39 45 28 63 34 35 12z m-113 -6
c-3 -5 -16 -15 -28 -21 -19 -9 -19 -8 3 10 28 23 34 26 25 11z m1176 -7 c13
-16 12 -17 -3 -4 -10 7 -18 15 -18 17 0 8 8 3 21 -13z m-40 -40 c13 -16 12
-17 -3 -4 -10 7 -18 15 -18 17 0 8 8 3 21 -13z m-1117 -5 c-3 -7 -36 -35 -72
-62 -76 -56 -70 -46 15 25 66 54 64 53 57 37z m1226 -13 c13 -14 21 -25 18
-25 -2 0 -15 11 -28 25 -13 14 -21 25 -18 25 2 0 15 -11 28 -25z m-403 9 c-3
-3 -12 -4 -19 -1 -8 3 -5 6 6 6 11 1 17 -2 13 -5z m-927 -10 c0 -8 -19 -13
-24 -6 -3 5 1 9 9 9 8 0 15 -2 15 -3z m728 -16 c13 -4 26 -17 29 -28 3 -11 10
-20 16 -20 10 0 30 -22 48 -55 9 -15 4 -13 -17 7 -62 58 -152 74 -214 38 -34
-20 -34 -20 -12 -1 13 11 23 22 22 25 -1 21 3 27 28 40 26 14 51 13 100 -6z
m468 -3 c1 -8 -2 -13 -7 -9 -5 3 -9 12 -9 21 0 19 13 9 16 -12z m-826 -23 c0
-7 -4 -10 -10 -7 -5 3 -10 16 -10 28 0 18 2 19 10 7 5 -8 10 -21 10 -28z m901
21 c13 -16 12 -17 -3 -4 -10 7 -18 15 -18 17 0 8 8 3 21 -13z m-301 -27 c-14
-14 -24 0 -16 21 6 15 8 15 16 3 6 -9 5 -19 0 -24z m84 -10 c-3 -9 -10 -13
-16 -10 -5 3 -4 12 3 20 15 18 22 13 13 -10z m190 -5 c-2 -3 -12 3 -22 13 -16
17 -16 18 5 5 12 -7 20 -15 17 -18z m-1420 -6 c3 -8 1 -15 -4 -15 -6 0 -10 7
-10 15 0 8 2 15 4 15 2 0 6 -7 10 -15z m426 11 c0 -3 -4 -8 -10 -11 -5 -3 -10
-1 -10 4 0 6 5 11 10 11 6 0 10 -2 10 -4z m-474 -34 c-18 -16 -18 -16 -6 6 6
13 14 21 18 18 3 -4 -2 -14 -12 -24z m184 18 c0 -5 -5 -10 -11 -10 -5 0 -7 5
-4 10 3 6 8 10 11 10 2 0 4 -4 4 -10z m461 -7 c0 -10 3 -13 6 -6 3 9 7 10 17
1 9 -9 9 -22 1 -54 -6 -24 -14 -46 -18 -50 -4 -4 -7 -20 -7 -35 0 -21 -7 -32
-27 -43 -42 -21 -68 -54 -102 -126 -17 -36 -38 -77 -46 -92 -19 -38 -6 -34 30
10 17 20 24 33 18 28 -7 -4 -13 -3 -13 2 0 20 31 82 40 82 6 0 10 8 10 18 0
20 31 52 68 71 19 10 22 9 22 -9 0 -12 -5 -18 -10 -15 -14 9 -30 -37 -19 -51
6 -8 3 -13 -11 -17 -11 -3 -20 -1 -20 4 0 5 -4 9 -8 9 -5 0 -7 -14 -4 -30 3
-25 1 -29 -12 -24 -12 4 -16 0 -16 -15 0 -11 -5 -41 -12 -66 -11 -40 -15 -45
-38 -43 -15 1 -42 -9 -61 -22 l-34 -24 20 24 20 23 -21 -11 c-33 -17 -48 -67
-17 -55 11 4 14 3 9 -5 -4 -6 -24 -16 -44 -22 -23 -6 -44 -21 -57 -40 -28 -42
-36 -38 -28 17 4 32 3 44 -5 40 -5 -4 -12 -1 -15 5 -7 21 -18 2 -24 -40 -5
-34 -2 -40 16 -45 27 -7 26 -16 -4 -51 -15 -18 -25 -41 -25 -61 0 -19 -8 -39
-20 -50 -17 -15 -20 -16 -20 -3 0 9 7 18 15 22 22 8 18 37 -5 43 -28 7 -25 23
5 23 21 0 25 5 25 28 0 18 3 23 9 14 7 -11 9 -11 14 2 4 9 3 15 -1 15 -4 -1
-17 -1 -29 0 -25 1 -32 21 -8 21 10 0 15 10 15 29 0 16 3 36 6 45 4 11 0 16
-14 16 -12 0 -24 5 -27 10 -4 6 7 10 25 10 44 0 30 14 -35 34 -30 10 -55 22
-55 26 0 15 22 23 29 12 8 -13 56 -32 79 -32 11 1 8 6 -10 16 -34 18 -36 28
-5 21 88 -20 86 -15 -8 32 -55 27 -94 50 -87 50 7 1 35 -10 62 -24 49 -25 90
-32 90 -17 0 5 -12 14 -27 21 -21 10 -24 14 -13 21 9 5 20 4 28 -2 10 -9 16
-8 23 3 11 18 11 26 -1 34 -15 9 -2 25 21 25 26 0 24 14 -6 44 -14 14 -25 30
-25 36 0 7 7 5 16 -4 8 -9 21 -16 29 -16 7 0 15 -5 17 -11 2 -6 30 14 61 44
53 50 57 57 45 76 -15 25 -1 42 16 18 19 -25 39 -22 31 6 -5 19 -4 20 5 5 9
-14 14 -16 30 -6 15 9 16 16 9 32 -8 17 -6 16 9 -3 11 -13 24 -21 31 -17 6 4
11 2 11 -4 0 -6 4 -9 10 -5 5 3 6 13 3 21 -4 10 1 17 14 20 15 4 19 12 15 30
-2 14 0 24 7 24 6 0 11 -8 12 -17z m505 -5 c-15 -52 -16 -66 -1 -72 9 -3 15 0
15 9 0 11 10 14 35 12 19 -1 35 -5 35 -8 0 -3 16 -5 35 -3 19 1 35 -2 35 -7 0
-4 7 -6 15 -3 20 8 19 31 -2 43 -10 5 -14 13 -10 17 9 9 47 -30 47 -47 0 -7
-9 -23 -21 -35 l-21 -22 56 -58 55 -58 23 20 c13 10 38 30 56 42 32 22 32 22
32 2 0 -12 -6 -20 -12 -19 -28 3 -38 -2 -38 -21 0 -11 -11 -25 -26 -33 -24
-12 -24 -14 -8 -28 9 -8 20 -13 23 -12 3 2 6 -7 6 -20 0 -15 6 -22 20 -23 39
-2 40 -4 10 -28 l-30 -25 38 5 c21 2 57 14 79 25 22 11 44 19 50 17 6 -2 -23
-20 -65 -39 -66 -29 -76 -37 -71 -54 10 -30 10 -30 66 -12 31 10 56 13 61 8 5
-5 -16 -17 -51 -27 l-60 -18 4 -35 4 -36 -10 33 c-11 34 -17 37 -39 23 -10 -6
-11 -20 -6 -52 l7 -44 -32 60 c-35 66 -50 88 -58 81 -2 -3 5 -17 15 -33 37
-53 33 -68 -6 -24 -34 37 -44 43 -70 39 -20 -3 -30 -1 -28 6 2 6 19 12 38 13
19 1 38 2 44 2 5 1 -8 11 -30 22 -22 12 -41 22 -43 24 -1 1 2 13 7 26 6 14 10
18 10 8 1 -19 45 -62 54 -52 4 3 7 0 8 -8 0 -9 4 -6 10 6 9 19 9 19 5 -2 -3
-15 4 -27 21 -38 24 -16 25 -16 18 7 -7 22 -6 22 8 4 18 -24 50 -15 39 11 -25
58 -47 92 -63 96 -23 6 -23 8 -4 -36 19 -46 19 -60 -1 -24 -13 25 -16 26 -30
12 -23 -23 -30 -19 -58 30 -26 44 -47 65 -26 26 5 -11 7 -21 2 -23 -4 -2 -16
-20 -26 -41 -24 -47 -42 -34 -21 16 8 20 15 38 14 39 -6 9 14 47 22 43 5 -3 6
1 3 10 -4 8 -13 14 -22 13 -9 -2 -16 5 -17 19 -3 41 -11 34 -46 -34 -19 -38
-35 -60 -37 -50 -2 9 1 24 5 34 5 10 6 34 2 53 -3 19 -7 31 -8 27 -3 -19 -31
24 -31 47 0 14 -4 28 -10 31 -5 3 -15 16 -22 28 -11 21 -10 21 8 7 16 -12 16
-10 -2 10 -12 14 -24 37 -28 52 -3 14 -9 34 -12 43 -6 15 -4 16 15 6 17 -10
22 -9 27 4 10 24 27 18 20 -7z m415 5 c13 -16 12 -17 -3 -4 -10 7 -18 15 -18
17 0 8 8 3 21 -13z m74 -3 c10 -11 16 -20 13 -20 -3 0 -13 9 -23 20 -10 11
-16 20 -13 20 3 0 13 -9 23 -20z m95 10 c0 -5 -4 -10 -10 -10 -5 0 -10 5 -10
10 0 6 5 10 10 10 6 0 10 -4 10 -10z m62 -44 c16 -29 -7 -11 -33 27 l-23 32
23 -20 c13 -11 27 -28 33 -39z m-1542 4 c0 -3 -10 -11 -22 -19 -18 -10 -20
-11 -10 0 6 7 12 22 12 34 0 16 2 17 10 5 5 -8 10 -17 10 -20z m472 -25 c-28
-25 -54 -55 -57 -66 -4 -11 -9 -18 -12 -16 -2 3 3 19 12 36 8 17 13 31 9 31
-4 0 -1 6 5 13 6 8 7 18 3 22 -4 5 -1 5 6 1 10 -6 10 -11 1 -22 -20 -25 2 -15
38 16 18 17 36 30 39 30 4 0 -17 -20 -44 -45z m513 34 c11 -17 -1 -21 -15 -4
-8 9 -8 15 -2 15 6 0 14 -5 17 -11z m-805 -13 c0 -3 -4 -8 -10 -11 -5 -3 -10
-1 -10 4 0 6 5 11 10 11 6 0 10 -2 10 -4z m1185 -26 c10 -11 16 -20 13 -20 -3
0 -13 9 -23 20 -10 11 -16 20 -13 20 3 0 13 -9 23 -20z m-1601 -5 c-4 -8 -8
-15 -10 -15 -2 0 -4 7 -4 15 0 8 4 15 10 15 5 0 7 -7 4 -15z m140 1 c-3 -8
-13 -17 -22 -21 -13 -5 -13 -2 3 15 21 24 26 25 19 6z m775 -15 c17 -17 18
-26 11 -53 -12 -41 -43 -73 -64 -65 -15 6 -22 49 -16 102 4 38 39 46 69 16z
m-859 -5 c0 -2 -8 -10 -17 -17 -16 -13 -17 -12 -4 4 13 16 21 21 21 13z m1530
-11 c-7 -8 -17 -15 -23 -15 -6 0 -2 7 9 15 25 19 30 19 14 0z m76 -47 c34 -50
43 -58 59 -52 7 3 15 -4 18 -15 3 -12 1 -21 -4 -21 -5 0 -2 -14 6 -30 9 -17
21 -28 26 -24 8 4 8 0 0 -14 -16 -29 -50 -18 -48 16 2 20 -4 27 -23 32 -17 4
-21 8 -12 14 6 4 12 12 12 17 0 6 -5 7 -12 3 -6 -4 -9 -3 -6 2 9 14 -27 79
-41 76 -7 -1 -10 2 -6 8 4 6 1 18 -7 27 -7 9 -8 14 -2 10 6 -3 24 -25 40 -49z
m-1562 27 c-4 -8 -1 -15 5 -15 6 0 8 -7 5 -15 -5 -12 -8 -12 -20 0 -22 21 -19
33 13 44 1 1 0 -6 -3 -14z m119 -58 c-3 -6 -10 -1 -14 12 -5 12 -15 24 -24 27
-8 4 -15 11 -15 17 0 6 13 -2 30 -18 16 -15 26 -33 23 -38z m864 11 c-3 -8 -6
-5 -6 6 -1 11 2 17 5 13 3 -3 4 -12 1 -19z m766 9 c3 -7 -3 -13 -14 -14 -15
-1 -16 1 -6 12 15 18 14 18 20 2z m-1923 -13 c0 -2 -11 -3 -24 -2 -14 1 -23 5
-20 9 4 7 44 0 44 -7z m-84 -41 c-5 -11 -10 -13 -17 -6 -7 7 -7 17 3 32 10 18
14 19 16 6 2 -9 1 -23 -2 -32z m236 25 c-7 -7 -12 -8 -12 -2 0 14 12 26 19 19
2 -3 -1 -11 -7 -17z m1743 -17 c-6 -5 -25 10 -25 20 0 5 6 4 14 -3 8 -7 12
-15 11 -17z m-1805 5 c0 4 9 -1 20 -11 27 -24 25 -34 -6 -45 -21 -8 -25 -15
-22 -35 3 -13 1 -22 -3 -19 -4 2 -16 -7 -25 -21 -25 -38 -26 -26 -5 33 14 38
17 61 11 82 -8 28 -7 29 11 20 10 -6 19 -8 19 -4z m1903 -1 c7 -16 -8 -29 -23
-20 -15 9 -12 35 4 35 8 0 16 -7 19 -15z m-1986 -1 c-3 -3 -12 -4 -19 -1 -8 3
-5 6 6 6 11 1 17 -2 13 -5z m146 -29 c-3 -9 -8 -14 -10 -11 -3 3 -2 9 2 15 9
16 15 13 8 -4z m137 -19 c0 -7 -8 -20 -17 -27 -15 -11 -16 -11 -5 1 17 20 15
30 -8 30 -13 0 -24 -10 -31 -26 -5 -15 -12 -24 -16 -21 -3 4 2 18 11 32 18 27
66 36 66 11z m1355 4 c3 -6 -1 -7 -10 -4 -8 4 -22 1 -30 -6 -12 -10 -15 -9
-15 4 0 18 45 23 55 6z m-1705 -105 c0 -8 -4 -15 -10 -15 -5 0 -7 7 -4 15 4 8
8 15 10 15 2 0 4 -7 4 -15z m2020 -20 c0 -5 -5 -3 -10 5 -5 8 -10 20 -10 25 0
6 5 3 10 -5 5 -8 10 -19 10 -25z m-640 10 c0 -8 -7 -15 -15 -15 -9 0 -12 6 -9
15 4 8 10 15 15 15 5 0 9 -7 9 -15z m-1365 -25 c3 -5 1 -10 -4 -10 -6 0 -11 5
-11 10 0 6 2 10 4 10 3 0 8 -4 11 -10z m126 -17 c6 -17 3 -20 -16 -20 -23 0
-40 21 -30 37 9 15 38 4 46 -17z m1747 -2 c-13 -22 -29 -23 -36 -3 -2 7 7 16
20 21 29 11 32 8 16 -18z m29 -33 c-3 -8 -6 -5 -6 6 -1 11 2 17 5 13 3 -3 4
-12 1 -19z m-1977 -24 c0 -22 -16 -17 -17 6 -1 11 2 18 8 15 5 -4 9 -13 9 -21z
m30 -4 c0 -5 -4 -10 -10 -10 -5 0 -10 5 -10 10 0 6 5 10 10 10 6 0 10 -4 10
-10z m300 -30 c0 -5 -4 -10 -10 -10 -5 0 -10 5 -10 10 0 6 5 10 10 10 6 0 10
-4 10 -10z m1100 7 c0 -2 -10 -12 -22 -23 l-23 -19 19 23 c18 21 26 27 26 19z
m440 -22 c0 -8 -4 -15 -10 -15 -5 0 -7 7 -4 15 4 8 8 15 10 15 2 0 4 -7 4 -15z
m-1680 -7 c0 -4 -4 -8 -9 -8 -6 0 -12 4 -15 8 -3 5 1 9 9 9 8 0 15 -4 15 -9z
m480 2 l25 -8 -25 0 c-14 0 -34 3 -45 8 l-20 9 20 -1 c11 0 31 -4 45 -8z m886
-4 c18 -14 18 -15 -6 -14 -45 1 -80 9 -74 19 8 14 58 11 80 -5z m564 -26 c0
-5 -2 -10 -4 -10 -3 0 -8 5 -11 10 -3 6 -1 10 4 10 6 0 11 -4 11 -10z m-1481
-11 c29 -10 30 -12 14 -24 -10 -7 -32 -11 -55 -7 -25 3 -38 1 -38 -7 0 -6 9
-11 21 -11 11 0 18 -3 15 -8 -6 -11 -96 -2 -96 10 0 5 5 6 11 2 6 -3 14 -2 18
2 3 5 17 15 31 21 l25 12 -25 1 c-23 1 -23 2 -5 10 28 12 47 12 84 -1z m938
-6 c47 -20 55 -33 21 -33 -13 0 -47 -3 -75 -6 -36 -4 -53 -3 -53 5 0 6 -10 11
-22 11 -27 0 -16 11 25 27 44 16 56 16 104 -4z m-1514 -7 c3 -8 0 -16 -6 -19
-7 -3 -13 3 -13 14 0 22 12 25 19 5z m72 -26 c3 -5 1 -10 -4 -10 -6 0 -11 5
-11 10 0 6 2 10 4 10 3 0 8 -4 11 -10z m1860 -8 c-3 -3 -11 0 -18 7 -9 10 -8
11 6 5 10 -3 15 -9 12 -12z m-327 -4 c-2 -7 3 -12 10 -10 6 1 12 -2 12 -8 0
-5 4 -10 9 -10 5 0 7 9 4 20 -3 11 0 20 6 20 6 0 11 -4 11 -9 0 -5 8 -7 19 -4
10 3 22 0 25 -6 5 -7 -2 -11 -16 -11 -22 -1 -22 -1 -4 -15 19 -15 19 -15 -5
-16 -54 -2 -64 -4 -64 -14 0 -9 10 -12 63 -14 35 -2 30 -41 -5 -42 -25 -1 -24
-3 10 -12 33 -9 53 -37 27 -37 -5 0 -10 -6 -10 -14 0 -9 -12 -16 -27 -18 -35
-4 -45 -42 -13 -51 18 -5 19 -8 9 -31 -7 -14 -17 -26 -23 -26 -6 0 -3 -5 7
-11 23 -14 22 -32 -2 -24 -44 14 -60 14 -54 0 2 -8 14 -17 24 -20 16 -5 18
-10 9 -20 -6 -8 -17 -12 -24 -9 -22 8 -38 -40 -34 -104 4 -81 -7 -70 -15 15
-4 37 -10 88 -13 112 -5 32 -4 42 4 37 17 -10 15 -1 -13 54 -26 51 -59 67 -71
36 -12 -31 -34 -4 -34 41 0 25 4 42 9 38 6 -3 28 -3 50 1 30 5 41 11 41 25 0
9 -8 19 -17 21 -13 3 -8 9 18 20 33 14 43 29 63 91 6 19 17 23 14 5z m-172
-17 c29 -1 36 -24 20 -62 l-13 -32 -10 29 -10 29 -8 -37 c-4 -21 -12 -38 -17
-38 -6 0 -8 14 -4 35 10 51 -11 44 -22 -7 l-10 -43 -1 43 c-1 50 -16 48 -25
-3 -4 -20 -11 -33 -16 -30 -17 11 9 101 33 117 6 3 22 5 36 3 14 -2 36 -4 47
-4z m481 3 c-3 -3 -12 -4 -19 -1 -8 3 -5 6 6 6 11 1 17 -2 13 -5z m-1424 -29
c15 -20 15 -28 5 -45 -14 -22 -28 -27 -28 -9 0 5 -4 7 -10 4 -5 -3 -10 -15
-10 -26 0 -12 -5 -19 -12 -16 -7 2 -12 16 -11 31 2 32 -5 34 -17 4 -7 -19 -9
-19 -9 -5 -1 10 -5 15 -11 12 -16 -10 1 27 23 53 26 29 57 28 80 -3z m1287 15
c0 -5 -4 -10 -10 -10 -5 0 -10 5 -10 10 0 6 5 10 10 10 6 0 10 -4 10 -10z
m350 -3 c0 -10 -15 -14 -47 -14 -27 0 -37 2 -23 4 14 3 29 9 35 14 14 13 35
11 35 -4z m-2285 -7 c3 -5 1 -10 -4 -10 -6 0 -11 5 -11 10 0 6 2 10 4 10 3 0
8 -4 11 -10z m1708 -5 c-3 -9 -8 -14 -10 -11 -3 3 -2 9 2 15 9 16 15 13 8 -4z
m612 5 c3 -5 -1 -10 -10 -10 -9 0 -13 5 -10 10 3 6 8 10 10 10 2 0 7 -4 10
-10z m-215 -10 c0 -5 -5 -10 -11 -10 -5 0 -7 5 -4 10 3 6 8 10 11 10 2 0 4 -4
4 -10z m-1323 -46 c-3 -3 -12 -4 -19 -1 -8 3 -5 6 6 6 11 1 17 -2 13 -5z
m-617 -24 c0 -5 -4 -10 -10 -10 -5 0 -10 5 -10 10 0 6 5 10 10 10 6 0 10 -4
10 -10z m856 -64 c43 -37 39 -60 -5 -34 -29 16 -81 14 -81 -4 0 -5 -8 -8 -17
-6 -10 1 -24 -1 -32 -6 -10 -6 -12 -5 -7 2 9 15 -7 15 -22 0 -9 -9 -13 -7 -18
5 -3 9 -10 14 -15 11 -5 -3 -6 2 -2 11 5 13 7 14 14 3 6 -9 9 -7 9 8 0 27 33
42 91 43 38 1 52 -5 85 -33z m-296 -26 c0 -43 -3 -50 -20 -50 -11 0 -20 7 -20
15 0 21 -43 19 -62 -2 -8 -10 -20 -33 -27 -52 -13 -41 -14 -51 -1 -31 8 12 10
11 10 -8 0 -35 -30 -225 -37 -231 -6 -6 3 157 12 199 5 22 4 22 -6 -3 -7 -19
-16 -26 -26 -23 -8 3 -19 6 -24 6 -5 0 -9 7 -9 15 0 14 12 20 33 16 5 -1 7 4
4 11 -2 7 -13 11 -23 9 -36 -7 -47 -6 -51 6 -2 6 5 14 16 18 29 9 26 25 -4 25
-22 0 -24 3 -21 37 4 41 23 55 39 28 9 -17 11 -17 22 -2 11 15 14 16 25 2 19
-23 39 -18 53 13 17 38 37 51 80 52 l37 0 0 -50z m740 13 c17 -16 20 -22 8
-17 -10 3 -18 10 -18 15 0 5 -6 9 -14 9 -8 0 -12 -9 -11 -25 3 -27 -21 -41
-55 -30 -12 4 -29 1 -38 -6 -14 -11 -15 -11 -4 1 20 23 15 26 -35 23 -26 -2
-43 1 -37 5 5 5 22 18 38 30 36 27 27 28 -24 2 -47 -24 -53 -18 -10 9 46 28
165 18 200 -16z m510 27 c0 -5 -2 -10 -4 -10 -3 0 -8 5 -11 10 -3 6 -1 10 4
10 6 0 11 -4 11 -10z m154 -16 c15 4 26 2 26 -4 0 -10 -13 -14 -37 -11 -6 1
-14 -3 -18 -9 -12 -19 -22 -10 -17 16 3 17 7 22 12 14 5 -8 18 -10 34 -6z
m-1932 -4 c6 0 6 -6 -2 -15 -10 -12 -10 -18 0 -30 16 -19 33 -9 27 16 -3 11
-1 19 4 19 5 0 9 -4 9 -10 0 -5 6 -7 13 -4 8 3 14 -1 14 -8 1 -7 6 -37 12 -66
6 -29 10 -58 8 -65 -1 -7 7 -11 19 -9 16 2 23 -4 29 -25 3 -15 14 -36 22 -45
15 -16 15 -18 0 -18 -10 0 -17 -7 -17 -17 0 -14 -2 -14 -21 3 -23 21 -62 103
-79 164 -6 24 -18 41 -30 45 -11 4 -23 17 -26 31 -3 13 -10 24 -15 24 -5 0 -9
5 -9 11 0 6 7 8 16 5 9 -3 20 -6 26 -6z m-72 -20 c0 -5 -4 -10 -9 -10 -6 0
-13 5 -16 10 -3 6 1 10 9 10 9 0 16 -4 16 -10z m1940 -10 c0 -5 -5 -10 -11
-10 -5 0 -7 5 -4 10 3 6 8 10 11 10 2 0 4 -4 4 -10z m-2015 -10 c3 -5 1 -10
-4 -10 -6 0 -11 5 -11 10 0 6 2 10 4 10 3 0 8 -4 11 -10z m1515 -5 c0 -8 -4
-15 -10 -15 -5 0 -7 7 -4 15 4 8 8 15 10 15 2 0 4 -7 4 -15z m-1230 -41 c0 -8
-4 -12 -10 -9 -5 3 -10 10 -10 16 0 5 5 9 10 9 6 0 10 -7 10 -16z m1690 1 c0
-8 -4 -15 -10 -15 -5 0 -7 7 -4 15 4 8 8 15 10 15 2 0 4 -7 4 -15z m-1298 -69
c1 -20 -2 -39 -5 -43 -4 -3 -7 15 -7 42 0 55 10 56 12 1z m868 -26 c0 -21 -4
-42 -10 -45 -6 -4 -10 13 -10 45 0 32 4 49 10 45 6 -3 10 -24 10 -45z m39 -64
c-9 -8 -10 -5 -5 14 3 14 7 36 8 50 1 14 3 8 5 -14 3 -22 -1 -43 -8 -50z
m-1451 14 c14 -38 2 -45 -24 -15 -15 17 -18 27 -11 34 17 17 24 13 35 -19z
m279 23 c-4 -3 -2 -12 4 -20 8 -9 8 -13 1 -13 -6 0 -14 5 -17 10 -4 6 -12 8
-18 4 -7 -3 -3 2 7 10 19 16 36 22 23 9z m1060 -15 c-3 -8 -6 -5 -6 6 -1 11 2
17 5 13 3 -3 4 -12 1 -19z m328 -16 c-17 -15 -18 -15 -6 0 7 9 9 23 5 30 -6
10 -4 11 7 0 11 -10 10 -15 -6 -30z m319 29 c3 -5 -1 -12 -10 -15 -20 -8 -29
-1 -19 13 8 13 22 14 29 2z m-1513 -64 c-13 -13 -14 5 -3 43 l7 25 3 -29 c2
-16 -1 -33 -7 -39z m1366 28 c-11 -22 -15 -24 -20 -12 -3 9 1 24 10 32 22 22
27 12 10 -20z m-66 11 c-7 -8 -22 -11 -38 -8 -25 5 -25 6 -8 13 11 4 28 8 39
8 14 1 16 -2 7 -13z m-1551 0 c0 -3 -4 -8 -10 -11 -5 -3 -10 -1 -10 4 0 6 5
11 10 11 6 0 10 -2 10 -4z m207 -58 c-2 -13 -4 -5 -4 17 -1 22 1 32 4 23 2
-10 2 -28 0 -40z m1141 31 c-11 -17 -10 -22 5 -30 9 -6 17 -17 17 -25 0 -12
-3 -12 -20 -2 -25 16 -29 78 -5 78 13 0 13 -3 3 -21z m-1613 2 c7 -12 -12 -24
-25 -16 -11 7 -4 25 10 25 5 0 11 -4 15 -9z m2077 -6 c0 -5 -5 -11 -11 -13 -6
-2 -11 4 -11 13 0 9 5 15 11 13 6 -2 11 -8 11 -13z m-1442 -59 c-7 -7 -10 1
-9 25 0 32 1 33 10 10 6 -16 6 -28 -1 -35z m770 22 c0 -25 -3 -29 -10 -18 -13
20 -13 50 0 50 6 0 10 -15 10 -32z m91 -5 c-8 -15 -10 -15 -11 -2 0 17 10 32
18 25 2 -3 -1 -13 -7 -23z m342 -7 c4 -10 1 -13 -8 -9 -8 3 -12 9 -9 14 7 12
11 11 17 -5z m-1537 -91 c19 -21 34 -33 34 -27 0 7 5 10 10 7 7 -4 4 -17 -7
-36 -21 -35 -24 -35 -41 -8 -7 11 -19 18 -27 16 -7 -3 -21 4 -32 16 l-18 22
24 -20 24 -20 -8 25 c-4 14 -11 27 -15 30 -13 8 -39 78 -32 85 4 4 17 -6 30
-22 14 -15 39 -46 58 -68z m1394 86 c0 -5 -7 -12 -16 -15 -14 -5 -15 -4 -4 9
14 17 20 19 20 6z m-173 -33 c-3 -8 -6 -5 -6 6 -1 11 2 17 5 13 3 -3 4 -12 1
-19z m-887 -8 c0 -5 -7 -10 -16 -10 -8 0 -12 5 -9 10 3 6 10 10 16 10 5 0 9
-4 9 -10z m800 0 c0 -5 -4 -10 -10 -10 -5 0 -10 5 -10 10 0 6 5 10 10 10 6 0
10 -4 10 -10z m373 -18 c-29 -46 -60 -82 -70 -82 -4 0 -14 -9 -21 -20 -20 -33
-1 -23 52 28 28 26 40 34 26 17 -28 -34 -77 -83 -106 -105 -18 -14 -18 -14 -5
3 8 9 11 20 7 24 -7 8 -51 -37 -51 -52 0 -5 -8 -11 -17 -13 -15 -3 -18 4 -18
33 0 22 6 38 15 41 8 4 12 10 9 15 -3 5 -10 7 -15 4 -5 -4 -9 12 -9 34 0 44
14 55 24 19 5 -19 8 -20 15 -8 9 12 11 12 16 -2 6 -16 9 -15 35 4 16 11 39 22
52 23 13 1 25 3 28 4 3 0 14 15 23 31 10 17 21 30 24 30 3 0 -3 -13 -14 -28z
m-93 -3 c0 -5 -9 -9 -20 -9 -22 0 -27 16 -7 23 15 5 27 -1 27 -14z m-1370 -10
c0 -5 -7 -9 -15 -9 -8 0 -15 7 -15 15 0 9 6 12 15 9 8 -4 15 -10 15 -15z m817
5 c3 -9 -3 -21 -16 -30 -11 -8 -21 -22 -21 -30 0 -12 -4 -12 -26 3 l-26 17 31
28 c36 32 49 35 58 12z m-247 -15 l35 -22 -24 -16 c-13 -9 -41 -26 -62 -39
l-37 -22 9 32 c4 18 11 45 14 61 7 33 19 34 65 6z m-860 -9 c0 -5 -4 -10 -10
-10 -5 0 -10 5 -10 10 0 6 5 10 10 10 6 0 10 -4 10 -10z m451 -37 c5 -14 7
-40 3 -57 -6 -27 -8 -29 -15 -11 -9 23 -12 95 -4 95 3 0 10 -12 16 -27z m1022
-10 c-3 -21 -10 -42 -15 -48 -6 -6 -7 4 -3 28 6 28 4 37 -6 37 -11 0 -11 2 1
10 25 16 29 12 23 -27z m-884 -5 c-1 -18 -3 -25 -6 -15 -2 9 -9 17 -14 17 -5
0 -9 7 -9 15 0 8 7 15 15 15 10 0 15 -10 14 -32z m776 23 c3 -6 -4 -15 -15
-21 -17 -9 -20 -8 -20 10 0 20 24 28 35 11z m-1233 -26 c-5 -26 -3 -26 -30 -1
l-22 22 27 -1 c22 0 27 -4 25 -20z m218 10 c-10 -12 -10 -19 -2 -27 19 -19 14
-30 -9 -18 -26 15 -34 7 -20 -18 17 -32 13 -37 -11 -16 -14 12 -19 14 -13 4 6
-12 5 -12 -4 -4 -14 13 -4 42 27 77 20 22 51 24 32 2z m-284 -6 c10 -17 -13
-36 -27 -22 -12 12 -4 33 11 33 5 0 12 -5 16 -11z m1676 -12 c-12 -13 -22 -34
-21 -48 0 -22 1 -22 8 -4 7 16 9 13 13 -17 2 -21 0 -38 -4 -38 -4 0 -8 7 -8
15 0 18 -16 20 -24 3 -3 -7 -4 4 -2 25 3 33 37 87 54 87 3 0 -4 -10 -16 -23z
m156 0 c2 -12 -3 -17 -17 -17 -12 0 -21 6 -21 13 0 31 32 34 38 4z m-778 9 c0
-2 3 -12 6 -21 6 -15 4 -15 -15 -4 -25 16 -27 29 -6 29 8 0 15 -2 15 -4z m688
-7 c-2 -6 -8 -10 -13 -10 -5 0 -11 4 -13 10 -2 6 4 11 13 11 9 0 15 -5 13 -11z
m-795 -49 c-2 -5 1 -9 5 -7 17 5 152 -97 152 -115 0 -20 -6 -21 -62 -12 -23 4
-40 13 -43 24 -6 19 -37 17 -62 -3 -10 -7 -13 -4 -14 9 0 11 -3 14 -6 7 -7
-18 -38 -16 -53 2 -15 19 -30 10 -30 -18 0 -20 0 -20 -15 -1 -8 11 -15 14 -15
7 0 -15 -26 -18 -32 -4 -1 4 -21 11 -43 15 l-40 6 30 -17 30 -18 -39 -3 c-21
-2 -40 -1 -42 1 -9 9 9 37 28 43 18 5 30 14 80 60 9 9 22 13 29 8 7 -4 10 -3
6 3 -6 10 28 40 63 54 17 8 76 -26 73 -41z m-772 23 c13 -16 12 -17 -3 -4 -10
7 -18 15 -18 17 0 8 8 3 21 -13z m1205 -51 c-9 -8 -13 0 -20 38 l-6 35 16 -34
c8 -18 13 -36 10 -39z m-1244 8 c-2 -22 -6 -40 -8 -40 -2 0 -4 18 -4 40 0 22
3 40 8 40 4 0 6 -18 4 -40z m1295 3 c-3 -10 -5 -4 -5 12 0 17 2 24 5 18 2 -7
2 -21 0 -30z m-907 8 c0 -5 -7 -24 -15 -42 l-14 -34 -1 43 c0 31 4 42 15 42 8
0 15 -4 15 -9z m775 -49 c0 -61 -10 -55 -20 12 -5 38 -4 47 7 44 8 -3 13 -22
13 -56z m-97 35 c-7 -7 -22 -16 -33 -20 -17 -6 -17 -4 4 13 26 22 50 28 29 7z
m-1000 -15 c2 -7 -2 -10 -12 -6 -9 3 -16 11 -16 16 0 13 23 5 28 -10z m1249
-4 c-3 -8 -6 -5 -6 6 -1 11 2 17 5 13 3 -3 4 -12 1 -19z m163 12 c0 -5 -2 -10
-4 -10 -2 0 -12 -3 -22 -7 -16 -6 -17 -5 -4 10 17 19 30 22 30 7z m110 -30 c5
0 10 -9 10 -20 0 -11 -7 -20 -15 -20 -8 0 -15 8 -15 18 0 9 -3 28 -5 42 -5 24
-5 24 4 3 6 -13 15 -23 21 -23z m-1430 10 c0 -5 -4 -10 -9 -10 -6 0 -13 5 -16
10 -3 6 1 10 9 10 9 0 16 -4 16 -10z m-190 -9 c0 -13 -26 -32 -33 -24 -14 13
-6 33 13 33 11 0 20 -4 20 -9z m320 -7 c0 -8 -4 -12 -10 -9 -5 3 -10 10 -10
16 0 5 5 9 10 9 6 0 10 -7 10 -16z m970 2 c0 -8 -4 -18 -10 -21 -5 -3 -10 3
-10 14 0 12 5 21 10 21 6 0 10 -6 10 -14z m-1095 -28 c8 -8 -110 -20 -150 -14
-38 5 -37 5 -31 14 5 9 172 10 181 0z m1352 -3 c-5 -15 -108 -15 -137 1 -23
12 -17 13 58 12 51 -2 81 -6 79 -13z m118 -5 c3 -5 -1 -10 -10 -10 -9 0 -13 5
-10 10 3 6 8 10 10 10 2 0 7 -4 10 -10z m-433 -25 c3 -13 1 -22 -3 -19 -9 5
-13 44 -5 44 2 0 6 -11 8 -25z m-724 -23 c2 -8 -14 -12 -54 -12 -63 0 -66 9
-7 20 45 9 55 8 61 -8z m627 -2 c-28 -12 -37 -12 -30 0 3 6 16 10 28 9 21 0
21 -1 2 -9z m-990 -40 c-3 -5 -18 -10 -33 -9 -24 0 -25 1 -7 9 28 12 47 12 40
0z m1370 -1 c-7 -11 -85 -12 -85 -1 0 4 20 8 45 9 26 1 43 -2 40 -8z m43 -26
c-10 -2 -26 -2 -35 0 -10 3 -2 5 17 5 19 0 27 -2 18 -5z m-121 -29 c-3 -3 -12
-4 -19 -1 -8 3 -5 6 6 6 11 1 17 -2 13 -5z m-1098 -33 c10 -6 0 -8 -27 -4 -29
4 -42 2 -42 -6 0 -9 -22 -12 -72 -10 -85 2 -111 9 -82 20 27 11 206 10 223 0z
m1146 -1 c59 -9 59 -9 -68 -16 -70 -5 -101 -3 -112 6 -8 7 -24 10 -35 7 -11
-3 -18 -1 -14 4 6 11 158 10 229 -1z m-920 -10 c3 -5 -1 -10 -10 -10 -9 0 -14
-4 -11 -9 8 -12 -39 -30 -63 -24 -12 3 -21 11 -21 19 0 8 6 11 15 8 8 -4 15
-4 15 0 0 3 -15 10 -32 15 -29 8 -25 9 34 10 37 1 70 -3 73 -9z m620 1 c-40
-4 -59 -10 -57 -18 1 -8 -8 -13 -24 -13 -14 0 -23 4 -19 10 3 6 -1 10 -9 10
-9 0 -16 -4 -16 -10 0 -5 -5 -10 -11 -10 -5 0 -7 5 -4 10 4 6 -9 11 -32 12
-61 2 68 15 157 15 l75 0 -60 -6z m-845 -25 c0 -8 -51 -13 -56 -5 -3 5 9 9 25
9 17 0 31 -2 31 -4z m974 -11 c-7 -17 -25 -20 -39 -6 -6 5 -19 11 -30 14 -11
3 1 5 27 6 38 1 46 -2 42 -14z m236 -61 c0 -8 -5 -12 -10 -9 -6 4 -8 11 -5 16
9 14 15 11 15 -7z m-895 -24 c3 -5 -1 -10 -10 -10 -9 0 -13 5 -10 10 3 6 8 10
10 10 2 0 7 -4 10 -10z m280 0 c3 -5 1 -10 -4 -10 -6 0 -11 5 -11 10 0 6 2 10
4 10 3 0 8 -4 11 -10z m-555 -4 c0 -3 -4 -8 -10 -11 -5 -3 -10 -1 -10 4 0 6 5
11 10 11 6 0 10 -2 10 -4z"/>
<path d="M670 1440 c0 -6 7 -10 15 -10 8 0 15 2 15 4 0 2 -7 6 -15 10 -8 3
-15 1 -15 -4z"/>
<path d="M1590 1831 c0 -6 5 -13 10 -16 6 -3 10 1 10 9 0 9 -4 16 -10 16 -5 0
-10 -4 -10 -9z"/>
<path d="M1694 1825 c21 -16 32 -13 21 4 -3 6 -14 11 -23 11 -15 -1 -15 -2 2
-15z"/>
<path d="M1627 1803 c-5 -26 -4 -26 9 -8 16 22 18 35 5 35 -5 0 -11 -12 -14
-27z"/>
<path d="M1660 1800 c0 -13 28 -25 38 -16 3 4 0 11 -8 16 -20 13 -30 12 -30 0z"/>
<path d="M1680 1744 c0 -19 29 -80 30 -63 0 9 -7 30 -15 45 -8 16 -15 24 -15
18z"/>
<path d="M1796 1627 c3 -10 9 -15 12 -12 3 3 0 11 -7 18 -10 9 -11 8 -5 -6z"/>
<path d="M1902 1121 c-10 -6 -10 -10 3 -21 13 -11 15 -9 15 9 0 24 0 24 -18
12z"/>
<path d="M1861 944 c0 -11 3 -14 6 -6 3 7 2 16 -1 19 -3 4 -6 -2 -5 -13z"/>
</g>
</svg>
